<svg width="24" height="25" viewBox="0 0 24 25" fill="none" xmlns="http://www.w3.org/2000/svg">
<path d="M14.1233 0.000465673C14.3328 0.132057 14.5668 0.236843 14.7447 0.402552C14.8811 0.526833 15.0054 0.721784 15.0298 0.897239C15.0688 1.19698 15.2272 1.28714 15.4879 1.37974C18.7753 2.56651 20.9831 4.78163 21.8969 8.19815C22.0212 8.66603 22.0578 9.15584 22.1357 9.63591C22.1528 9.748 22.165 9.8601 22.182 10.0014C22.3551 10.0014 22.5183 9.99413 22.6767 10.0014C23.3249 10.038 23.8343 10.5644 23.8391 11.215C23.8464 11.9875 23.8123 12.7624 23.8489 13.5325C23.883 14.2221 23.5296 14.9045 22.5939 15.0141C22.5939 15.1701 22.5939 15.3309 22.5939 15.4917C22.5963 15.8865 22.4257 16.1716 22.0724 16.3568C21.6995 16.5518 21.2585 16.698 20.9904 16.9929C20.7297 17.2829 20.6882 17.758 20.4835 18.1138C20.0912 18.7986 20.0571 19.4712 20.3788 20.1852C20.5908 20.6579 20.4738 21.0576 20.0839 21.4085C19.6696 21.7862 19.2846 22.1956 18.8898 22.5953C18.6169 22.8706 18.305 22.9535 17.9321 22.8389C17.5983 22.7366 17.2669 22.6294 16.9281 22.5465C16.8038 22.5173 16.6503 22.5148 16.5358 22.5611C15.9168 22.8048 15.3027 23.0631 14.6935 23.3263C14.6058 23.3653 14.518 23.4433 14.4693 23.5237C14.2841 23.8381 14.1111 24.1622 13.9405 24.4838C13.7602 24.825 13.4897 24.9956 13.0949 24.9907C12.4686 24.981 11.8423 24.9834 11.2161 24.9907C10.853 24.9956 10.5947 24.8348 10.4192 24.5253C10.3705 24.44 10.312 24.3596 10.2803 24.2694C10.039 23.5846 9.56386 23.1752 8.86447 22.9803C8.49163 22.8779 8.14559 22.6854 7.78006 22.549C7.68258 22.5124 7.5583 22.5075 7.45595 22.5343C7.07823 22.6294 6.70783 22.7439 6.33255 22.8536C6.01332 22.9462 5.73551 22.8706 5.50157 22.644C5.03125 22.1834 4.56824 21.7131 4.1028 21.2477C3.85424 20.9991 3.80306 20.6994 3.8981 20.3704C4.00045 20.0122 4.11498 19.6564 4.20758 19.2957C4.23439 19.1958 4.23439 19.0691 4.1954 18.9741C3.94684 18.3478 3.68853 17.7264 3.42291 17.1074C3.38148 17.0124 3.29375 16.9222 3.20603 16.8686C2.90629 16.6907 2.59924 16.5201 2.28732 16.3641C1.9096 16.1765 1.73415 15.8792 1.74389 15.4625C1.74877 15.3114 1.74389 15.1579 1.74389 15.0068C1.10056 14.9313 0.686286 14.6218 0.530326 14.0126C0.50352 13.9126 0.501083 13.803 0.501083 13.6982C0.501083 12.8916 0.498646 12.0874 0.501083 11.2808C0.501083 10.5327 1.01039 10.0112 1.76339 9.98682C1.89254 9.98194 2.01926 9.98682 2.13867 9.98682C2.2264 9.43852 2.28001 8.91215 2.39698 8.40041C3.03301 5.60774 4.65841 3.5437 7.12697 2.14005C7.73619 1.79401 8.41608 1.57713 9.0643 1.29689C9.13009 1.26765 9.23488 1.21891 9.23975 1.17017C9.30798 0.558512 9.67352 0.20029 10.2194 -0.0117188C11.5207 -0.0117188 12.8244 -0.0117188 14.1257 -0.0117188L14.1233 0.000465673ZM3.05006 9.98194H21.3145C21.239 8.6441 20.8783 7.41103 20.2301 6.26082C19.5795 5.10574 18.6973 4.16998 17.5861 3.37311C17.5861 4.58668 17.5861 5.74177 17.5861 6.89685C17.5861 7.30137 17.435 7.51582 17.1596 7.50851C16.8891 7.5012 16.7527 7.29893 16.7502 6.90416C16.7502 5.61748 16.7502 4.33325 16.7454 3.04657C16.7454 2.96372 16.7112 2.83213 16.6552 2.80288C16.1556 2.56163 15.6463 2.33744 15.0931 2.08888C15.0931 2.25215 15.0931 2.33987 15.0931 2.4276C15.0931 2.85893 15.098 3.29026 15.0907 3.72159C15.0858 3.98965 14.9128 4.1651 14.6716 4.16754C14.4376 4.16754 14.2744 4.01158 14.2475 3.75327C14.2402 3.68016 14.2427 3.60705 14.2427 3.53395C14.2427 2.8175 14.2427 2.10106 14.2427 1.38462C14.2427 0.967909 14.1038 0.83388 13.6822 0.83388C12.7537 0.83388 11.8277 0.83388 10.8993 0.83388C10.1365 0.83388 10.0927 0.880181 10.0927 1.65267C10.0927 2.32038 10.0927 2.98809 10.0927 3.65336C10.0927 3.87268 10.0366 4.06032 9.80998 4.14317C9.51756 4.25039 9.24706 4.04082 9.24463 3.69966C9.23975 3.18791 9.24463 2.67617 9.24463 2.09619C8.74019 2.31794 8.27718 2.52752 7.81174 2.7249C7.64115 2.79801 7.58023 2.89792 7.58267 3.09044C7.59485 4.36736 7.58998 5.64429 7.58754 6.92365C7.58754 7.03575 7.58754 7.1576 7.54612 7.25751C7.46814 7.43784 7.30974 7.52557 7.10991 7.49632C6.89059 7.46464 6.75413 7.28919 6.75413 7.04306C6.75413 5.91966 6.75413 4.79625 6.75413 3.67529C6.75413 3.59 6.75413 3.50471 6.75413 3.40479C4.82168 4.43072 2.87705 7.89597 3.05494 9.97951L3.05006 9.98194ZM17.6226 15.0141C17.0524 18.0456 15.332 19.7977 12.1908 20.0122C9.02531 19.8196 7.28781 18.0675 6.7127 15.0141H2.62361C2.54076 15.5356 2.54319 15.5405 2.9599 15.772C3.25233 15.9328 3.54963 16.0815 3.8323 16.2569C3.94196 16.3252 4.05162 16.4348 4.1028 16.5518C4.43665 17.3267 4.76076 18.1065 5.07024 18.8912C5.11898 19.0155 5.11654 19.1787 5.08243 19.3103C4.98495 19.7027 4.86311 20.0901 4.7437 20.4776C4.70715 20.597 4.70958 20.6799 4.8095 20.7773C5.20183 21.1551 5.57955 21.5498 5.97433 21.9251C6.04012 21.9885 6.17902 22.025 6.26675 22.0031C6.65178 21.9081 7.02706 21.7716 7.41209 21.679C7.56805 21.6424 7.75813 21.6424 7.9019 21.6985C8.66465 21.9958 9.42008 22.3126 10.1706 22.6391C10.2998 22.6952 10.4265 22.8146 10.5021 22.9364C10.7092 23.2752 10.8944 23.6285 11.0772 23.9818C11.1454 24.1134 11.2185 24.1719 11.3745 24.1695C11.9033 24.1597 12.4321 24.1597 12.9609 24.1695C13.1168 24.1719 13.1924 24.111 13.2582 23.9818C13.4361 23.6358 13.614 23.2873 13.8211 22.9584C13.9039 22.8243 14.0404 22.6927 14.1842 22.6294C14.9274 22.3053 15.678 21.9958 16.4334 21.6985C16.5723 21.6449 16.7551 21.6351 16.9013 21.6717C17.2863 21.7618 17.6665 21.8837 18.0467 22.0031C18.1758 22.0445 18.2708 22.0397 18.3708 21.9324C18.7509 21.5401 19.1433 21.1624 19.5185 20.7676C19.5746 20.7091 19.6063 20.58 19.5868 20.502C19.4869 20.1096 19.3504 19.727 19.2553 19.3323C19.2212 19.1861 19.2212 19.0057 19.2748 18.8668C19.5746 18.1041 19.8889 17.3462 20.2179 16.5957C20.2813 16.4519 20.4129 16.3178 20.5493 16.2326C20.8881 16.023 21.2463 15.85 21.5923 15.6526C21.6532 15.6185 21.7263 15.5454 21.7337 15.4844C21.7532 15.3358 21.741 15.1798 21.741 15.0141H17.6226ZM12.1811 10.8373C8.7475 10.8373 5.31393 10.8373 1.88036 10.8373C1.48071 10.8373 1.33693 10.9786 1.33693 11.3807C1.33693 12.1215 1.33693 12.8623 1.33693 13.6007C1.33693 14.0199 1.47827 14.1588 1.89254 14.1588C8.74263 14.1588 15.5927 14.1588 22.4452 14.1588C22.8595 14.1588 23.0008 14.0199 23.0008 13.6007C23.0008 12.877 23.0008 12.1532 23.0008 11.4295C23.0008 10.9616 22.8741 10.8349 22.4087 10.8349C18.9995 10.8349 15.5903 10.8349 12.1811 10.8349V10.8373ZM16.6966 15.0165H7.64115C7.72645 17.0148 9.56142 19.1739 12.1957 19.1593C14.8519 19.1422 16.6235 16.9466 16.6966 15.0165Z" fill="white"/>
</svg>
