<svg width="24" height="26" viewBox="0 0 24 26" fill="none" xmlns="http://www.w3.org/2000/svg">
<g clip-path="url(#clip0_884_3348)">
<path d="M13.6723 0.334952C13.8209 0.454359 13.9939 0.554272 14.1109 0.698048C14.2742 0.895435 14.3132 1.14643 14.2084 1.38769C14.1109 1.61432 14.1767 1.74347 14.3863 1.84826C14.5373 1.9238 14.6762 2.02859 14.8176 2.12363C15.4561 2.55252 15.6681 3.25434 15.3635 3.96104C15.1051 4.55807 14.8395 5.1478 14.5666 5.73753C14.513 5.85693 14.5373 5.93004 14.5983 6.04214C14.7713 6.35893 14.937 6.68791 15.054 7.02907C15.11 7.18747 15.1782 7.26302 15.322 7.32394C16.9352 7.99895 18.2585 9.04438 19.2771 10.4675C19.3478 10.5674 19.4257 10.7161 19.4014 10.816C19.3697 10.9354 19.243 11.0889 19.1357 11.1084C19.0139 11.1328 18.8311 11.0597 18.741 10.9646C18.5168 10.7307 18.3438 10.4505 18.1269 10.2092C16.7549 8.68372 15.054 7.76014 13.024 7.45309C9.04948 6.85118 5.17484 9.11017 3.73951 13.0043C2.94509 15.1634 2.67215 17.3615 2.90853 19.6375C2.97433 20.2638 2.78912 20.8267 2.37973 21.3092C2.14822 21.5821 1.90697 21.8453 1.66572 22.1134C1.23683 22.5886 1.12717 23.1344 1.38061 23.7169C1.63892 24.3139 2.13604 24.5941 2.77938 24.5966C4.30974 24.6014 5.83767 24.5966 7.36803 24.5966C7.44114 24.5966 7.51668 24.5893 7.58735 24.6015C7.7823 24.638 7.88952 24.7696 7.89196 24.9572C7.8944 25.1449 7.78474 25.2789 7.59466 25.3203C7.5313 25.335 7.46551 25.3252 7.39971 25.3252C5.85473 25.3252 4.3073 25.3252 2.76232 25.3252C1.81681 25.3252 1.11499 24.8988 0.717773 24.0458C0.325434 23.2027 0.464337 22.3985 1.05163 21.6796C1.20515 21.492 1.35867 21.297 1.539 21.1338C2.11654 20.6196 2.19453 19.9836 2.1336 19.2501C1.88017 16.1942 2.4309 13.3065 4.09286 10.6941C5.08467 9.13698 6.49075 8.03551 8.1917 7.32394C8.3501 7.25814 8.42808 7.1826 8.4695 7.00714C8.63765 6.28339 9.05923 5.73509 9.705 5.32813C9.61728 5.12099 9.52711 4.9163 9.44182 4.70916C9.34191 4.46547 9.4077 4.26808 9.6124 4.17305C9.81223 4.08044 10.0072 4.17061 10.1217 4.40942C10.1973 4.57026 10.2557 4.74084 10.3435 4.8968C10.3751 4.95529 10.4702 5.01377 10.5335 5.01377C11.0526 5.00646 11.5717 4.97965 12.0907 4.97478C12.2491 4.97478 12.31 4.92117 12.3563 4.77252C12.7121 3.62718 13.0777 2.48428 13.4383 1.33895C13.4627 1.2634 13.4773 1.18542 13.5065 1.06602C13.2287 1.06602 12.9802 1.05627 12.7341 1.07333C12.6731 1.0782 12.6049 1.16106 12.561 1.22441C12.2881 1.60701 12.02 1.99691 11.7496 2.38194C11.4449 2.81326 11.0136 2.90343 10.5604 2.63537C10.5189 2.611 10.4751 2.58663 10.4336 2.55983C9.94869 2.26253 9.95113 2.26496 9.5198 2.6305C9.41989 2.71579 9.39552 2.7889 9.46132 2.89855C9.49056 2.94729 9.50762 3.0009 9.52711 3.05452C9.60997 3.28602 9.53442 3.47366 9.32729 3.55651C9.13477 3.63449 8.95444 3.55651 8.84722 3.34694C8.54017 2.75478 8.61572 2.39899 9.13721 1.99203C9.23225 1.91649 9.32729 1.84095 9.42476 1.7654C9.7708 1.49735 10.0803 1.47785 10.4604 1.70204C10.6554 1.81658 10.8479 1.93599 11.0623 2.06514C11.345 1.66062 11.6058 1.25853 11.9006 0.883251C12.0663 0.673679 12.293 0.512844 12.4928 0.330078C12.8827 0.330078 13.275 0.330078 13.6649 0.330078L13.6723 0.334952ZM9.26393 6.95353C10.1266 6.72446 10.9454 6.58312 11.7739 6.62699C12.5951 6.66842 13.4139 6.78051 14.2279 6.86337C13.972 6.27364 13.5041 5.84719 12.8218 5.76677C12.1955 5.69366 11.5546 5.69366 10.9234 5.73265C10.1558 5.77895 9.6124 6.19566 9.26393 6.95597V6.95353ZM13.894 2.41118C13.6138 3.30064 13.3408 4.15842 13.0728 5.01133C13.3652 5.13318 13.6333 5.24527 13.9281 5.36712C14.1962 4.75302 14.4837 4.13649 14.7299 3.50778C14.8249 3.26165 14.7299 3.0009 14.5154 2.83032C14.3278 2.68167 14.1158 2.55983 13.894 2.41118Z" fill="white"/>
<path d="M14.9654 25.3329C13.0134 25.3329 11.0615 25.3329 9.10709 25.3329C9.03398 25.3329 8.95844 25.3402 8.88777 25.328C8.68063 25.2915 8.57341 25.1599 8.57828 24.9552C8.58316 24.7627 8.69282 24.636 8.88777 24.6043C8.96818 24.5921 9.05104 24.5994 9.13146 24.5994C12.9866 24.5994 16.8442 24.5994 20.6993 24.5994C21.4889 24.5994 22.0616 24.1827 22.2346 23.4711C22.3516 22.9911 22.2419 22.5524 21.9178 22.1747C21.7058 21.9286 21.4913 21.6849 21.2696 21.4461C20.7505 20.888 20.5629 20.2398 20.6409 19.4771C20.8894 17.0036 20.5385 14.6204 19.5126 12.3443C19.3518 11.991 19.3859 11.7765 19.6125 11.6717C19.8416 11.567 20.0292 11.6839 20.1876 12.0348C21.2403 14.3669 21.6424 16.8087 21.389 19.3504C21.3183 20.0546 21.4523 20.6517 21.9909 21.1366C22.159 21.2877 22.3004 21.4705 22.449 21.6435C23.0046 22.2941 23.1825 23.0325 22.9023 23.8464C22.6196 24.6701 22.0201 25.1477 21.1672 25.3085C21.0332 25.3329 20.8919 25.3305 20.7554 25.3305C18.8278 25.3305 16.9002 25.3305 14.9727 25.3305L14.9654 25.3329Z" fill="white"/>
<path d="M8.89844 15.9624C8.9423 15.3727 8.92281 14.7708 9.04465 14.1957C9.3322 12.8505 10.575 11.9757 11.9908 12.0536C13.2605 12.1219 14.4107 13.1624 14.5423 14.4613C14.6519 15.5506 14.7177 16.6594 14.4935 17.7389C14.2182 19.067 12.9632 19.9735 11.6326 19.9029C10.2826 19.8297 9.15675 18.816 8.99104 17.4733C8.93012 16.9786 8.98129 16.4693 8.98129 15.9648C8.95449 15.9648 8.92768 15.9648 8.90087 15.9624H8.89844ZM13.8819 15.9941C13.8648 15.9941 13.8453 15.9941 13.8283 15.9941C13.8283 15.5481 13.8526 15.0998 13.8234 14.6538C13.7576 13.6254 12.8243 12.7896 11.7691 12.7896C10.7164 12.7896 9.76597 13.6254 9.71723 14.6538C9.6758 15.5213 9.67824 16.3937 9.71479 17.2613C9.75622 18.2263 10.5726 19.0402 11.4888 19.1401C12.7097 19.2741 13.5894 18.4748 13.76 17.6195C13.8672 17.0931 13.8453 16.54 13.8819 15.9965V15.9941Z" fill="white"/>
<path d="M6.05649 17.0573C5.94439 17.1913 5.83473 17.3302 5.71776 17.4618C5.55937 17.6421 5.34005 17.6738 5.17921 17.5471C5.00132 17.4058 4.98426 17.1937 5.14997 16.9866C5.48139 16.5748 5.81524 16.1654 6.15397 15.7609C6.34161 15.5367 6.58773 15.5342 6.77781 15.7609C7.11897 16.1654 7.45283 16.5748 7.78424 16.9866C7.94995 17.1913 7.93289 17.4082 7.755 17.5471C7.58685 17.6787 7.3651 17.6373 7.19939 17.4447C7.09217 17.318 6.98738 17.1864 6.83629 17.0037C6.83629 17.474 6.83142 17.8761 6.83629 18.2782C6.8436 18.7241 6.82167 19.1749 6.88503 19.616C6.99469 20.3861 7.64534 20.9465 8.42758 21.0002C8.63715 21.0148 8.8516 21.005 9.06117 21.0221C9.27562 21.0367 9.40721 21.1561 9.42183 21.3779C9.43401 21.5728 9.29755 21.7434 9.08798 21.7605C8.0986 21.8311 7.08242 21.624 6.42446 20.5152C6.21489 20.1594 6.10523 19.772 6.10523 19.3553C6.10523 18.5998 6.10523 17.842 6.10523 17.0865C6.09061 17.0768 6.07355 17.0695 6.05893 17.0597L6.05649 17.0573Z" fill="white"/>
<path d="M17.4306 14.9521C17.5938 14.7547 17.7035 14.6134 17.8205 14.4794C17.9764 14.3015 18.2006 14.2771 18.3614 14.4111C18.5247 14.55 18.554 14.7474 18.4053 14.9326C18.0617 15.3664 17.7108 15.7929 17.3526 16.2144C17.1844 16.4094 16.9481 16.4094 16.7823 16.2144C16.4241 15.7929 16.0732 15.3664 15.7296 14.9326C15.5834 14.7474 15.6102 14.55 15.771 14.4111C15.9319 14.2747 16.1512 14.299 16.312 14.4769C16.4314 14.6085 16.5411 14.7499 16.68 14.918C16.6897 14.8254 16.6995 14.7645 16.6995 14.706C16.6995 14.0383 16.7019 13.373 16.6995 12.7053C16.6946 11.7038 15.9782 10.9678 14.9766 10.9288C14.806 10.9215 14.6354 10.9313 14.4649 10.924C14.2553 10.9142 14.1335 10.7899 14.1188 10.5852C14.1018 10.3757 14.2187 10.2392 14.4161 10.1978C15.503 9.97358 16.7165 10.5633 17.1796 11.5795C17.3233 11.8963 17.4062 12.2618 17.4232 12.6079C17.4598 13.3608 17.4354 14.1163 17.4354 14.9473L17.4306 14.9521Z" fill="white"/>
</g>
<defs>
<clipPath id="clip0_884_3348">
<rect width="22.5266" height="25" fill="white" transform="translate(0.5 0.333984)"/>
</clipPath>
</defs>
</svg>
