<svg width="24" height="26" viewBox="0 0 24 26" fill="none" xmlns="http://www.w3.org/2000/svg">
<g clip-path="url(#clip0_884_3358)">
<path d="M15.5354 0.666016C15.7486 0.824297 15.9856 0.95705 16.1715 1.14256C18.5416 3.49636 20.9031 5.85868 23.2681 8.21758C23.8086 8.7571 23.8086 9.23365 23.2681 9.77487C22.6747 10.3672 22.078 10.9594 21.488 11.5551C21.3311 11.7134 21.1606 11.773 20.9628 11.6555C20.736 11.5211 20.7326 11.2573 20.9543 11.0343C21.5511 10.4335 22.153 9.83614 22.7515 9.23706C22.9817 9.00729 22.9817 8.98687 22.7446 8.7503C20.3575 6.36756 17.9703 3.98483 15.5832 1.60209C15.532 1.55103 15.4826 1.49487 15.4229 1.45232C15.2814 1.3502 15.1944 1.41998 15.1501 1.55784C15.1313 1.61741 15.145 1.68719 15.145 1.75186C15.145 3.12704 15.145 4.50222 15.145 5.8791C15.145 6.35224 15.0461 6.45266 14.5721 6.45266C11.0817 6.45266 7.59134 6.45266 4.10098 6.45266C4.01914 6.45266 3.93729 6.45776 3.85715 6.45266C3.63208 6.43394 3.53489 6.51733 3.54171 6.76071C3.55705 7.38703 3.54682 8.01335 3.54682 8.64137C3.54682 9.50426 3.54682 10.3672 3.54682 11.23C3.54682 11.5143 3.58093 11.5483 3.8725 11.5483C4.49145 11.5483 5.11211 11.5568 5.73107 11.5415C5.85213 11.5381 5.99877 11.4734 6.08573 11.39C6.79165 10.7024 7.48222 9.99783 8.18472 9.30684C8.69967 8.79965 9.5113 8.97666 9.72444 9.64042C9.76877 9.77657 9.77047 9.92805 9.77218 10.0727C9.779 10.5373 9.77729 11.0003 9.779 11.4649C9.779 11.4802 9.78923 11.4955 9.80799 11.55H10.0757C11.5762 11.55 13.0767 11.55 14.5772 11.55C15.0512 11.55 15.1433 11.6436 15.1433 12.1236C15.1433 13.4902 15.1433 14.8586 15.1433 16.2253C15.1433 16.29 15.1365 16.3563 15.1467 16.421C15.1723 16.5844 15.2967 16.6372 15.428 16.5401C15.4928 16.4925 15.5474 16.4295 15.6054 16.3733C16.9149 15.0662 18.2227 13.7608 19.5322 12.4537C19.5902 12.3959 19.6448 12.3363 19.7078 12.2836C19.8801 12.1389 20.0949 12.144 20.2364 12.2887C20.3745 12.4316 20.3763 12.6563 20.2211 12.8146C19.892 13.1533 19.5561 13.4851 19.2185 13.817C19.1554 13.8783 19.077 13.9259 19.0053 13.9787C19.0173 13.9991 19.0275 14.0178 19.0394 14.0383C19.1077 14.0434 19.1742 14.0536 19.2424 14.0536C19.6499 14.0536 20.0574 14.0502 20.4649 14.0553C20.956 14.0621 21.326 14.4144 21.3686 14.9046C21.3754 14.9777 21.3754 15.0509 21.3754 15.1241C21.3754 16.6048 21.3754 18.0872 21.3754 19.5679C21.3754 20.2946 21.0225 20.6401 20.2927 20.6401C16.8927 20.6401 13.491 20.6401 10.091 20.6401H9.77388C9.77388 20.7593 9.77388 20.8546 9.77388 20.9499C9.77388 22.1957 9.77729 23.4399 9.77218 24.6857C9.76877 25.312 9.37318 25.7222 8.79174 25.6643C8.58883 25.6439 8.35523 25.5418 8.212 25.4005C6.86838 24.0832 5.5401 22.7489 4.21011 21.4179C4.02255 21.229 4.01232 21.0146 4.16919 20.8563C4.33629 20.6878 4.55284 20.7065 4.76598 20.921C6.03628 22.1855 7.30148 23.4552 8.57519 24.7163C8.66727 24.8082 8.80879 24.8508 8.92644 24.9172C8.96055 24.7844 9.02534 24.6517 9.02534 24.5189C9.03216 23.1761 9.03046 21.8332 9.03046 20.4904C9.03046 19.9747 9.11742 19.8896 9.64941 19.8896C13.1551 19.8896 16.6625 19.8896 20.1682 19.8896C20.2415 19.8896 20.3149 19.8879 20.3882 19.8896C20.5638 19.8947 20.6337 19.813 20.6303 19.636C20.6235 19.0829 20.6286 18.5297 20.6286 17.9749C20.6286 17.0218 20.6286 16.0704 20.6286 15.1173C20.6286 14.8297 20.5945 14.7956 20.3046 14.7956C19.6772 14.7956 19.048 14.7888 18.4205 14.8007C18.3131 14.8024 18.1835 14.8586 18.1068 14.9352C17.3906 15.6364 16.6881 16.3512 15.9737 17.0524C15.4945 17.5222 14.717 17.3792 14.4732 16.7767C14.4152 16.632 14.405 16.4601 14.4015 16.3002C14.393 15.8134 14.3981 15.3249 14.3981 14.7956C14.0691 14.7956 13.7536 14.7956 13.4399 14.7956C13.0426 14.7956 12.867 14.6816 12.8687 14.4263C12.8687 14.1727 13.0511 14.0553 13.4416 14.0553C13.7502 14.0553 14.0588 14.0553 14.3828 14.0553V12.304H9.78923V14.0553C10.3161 14.0553 10.8362 14.0553 11.3545 14.0553C11.4364 14.0553 11.5199 14.0451 11.5984 14.0604C11.7961 14.1012 11.9172 14.2187 11.9121 14.4331C11.907 14.6442 11.791 14.782 11.5847 14.7854C10.843 14.7956 10.1013 14.7956 9.35954 14.7854C9.13788 14.782 9.03046 14.6203 9.02875 14.3548C9.02705 13.7523 9.02875 13.1498 9.02875 12.5474C9.02875 11.7168 9.03216 10.8862 9.02364 10.0574C9.02364 9.96039 8.94861 9.86337 8.90939 9.76466C8.82073 9.80891 8.71331 9.83614 8.64681 9.90252C6.22726 12.3108 3.81282 14.7242 1.39327 17.1324C1.22276 17.3026 1.23981 17.4132 1.4018 17.5715C2.06508 18.2217 2.71985 18.8803 3.37631 19.5373C3.43429 19.5951 3.49738 19.6496 3.5383 19.7177C3.63719 19.8811 3.63378 20.0462 3.49397 20.1857C3.35415 20.3236 3.19216 20.3389 3.02677 20.2283C2.96709 20.1874 2.91593 20.133 2.86478 20.0819C2.19638 19.4147 1.52627 18.7476 0.857867 18.0787C0.378731 17.5988 0.380436 17.0933 0.864687 16.6099C2.22536 15.2518 3.58604 13.8936 4.94842 12.5354C5.01151 12.4725 5.08483 12.4197 5.15304 12.3618C5.14622 12.3397 5.1394 12.3159 5.13258 12.2938C5.05926 12.2938 4.98594 12.2938 4.91432 12.2938C4.54772 12.2938 4.18112 12.2938 3.81282 12.2938C3.16488 12.2938 2.79828 11.9347 2.79658 11.2828C2.79317 10.1272 2.79658 8.97155 2.79658 7.81592C2.79658 7.45 2.79317 7.08408 2.79658 6.71646C2.8034 6.06972 3.16999 5.7089 3.81964 5.7089C7.22816 5.7089 10.6367 5.7089 14.0452 5.7089C14.1509 5.7089 14.2566 5.7089 14.3981 5.7089V5.43489C14.3981 4.22991 14.4135 3.02492 14.3913 1.82164C14.3828 1.26 14.5635 0.866846 15.0955 0.666016C15.2422 0.666016 15.3888 0.666016 15.5354 0.666016Z" fill="white"/>
</g>
<defs>
<clipPath id="clip0_884_3358">
<rect width="23.1707" height="25" fill="white" transform="translate(0.5 0.666016)"/>
</clipPath>
</defs>
</svg>
