<svg width="24" height="25" viewBox="0 0 24 25" fill="none" xmlns="http://www.w3.org/2000/svg">
<g clip-path="url(#clip0_884_3364)">
<path d="M19.2213 -0.00134294C19.2418 0.0114736 19.2597 0.0319801 19.2802 0.0396701C19.8723 0.249862 20.1671 0.642049 20.1799 1.25981C20.1902 1.78016 20.1851 2.30051 20.1799 2.82087C20.1799 3.12077 20.0338 3.29252 19.8006 3.28995C19.5699 3.28995 19.4263 3.11308 19.4263 2.81574C19.4238 2.31077 19.4263 1.80579 19.4263 1.30338C19.4263 0.900944 19.2546 0.731765 18.8419 0.731765C14.7893 0.731765 10.7367 0.731765 6.68408 0.726638C6.48927 0.726638 6.438 0.785594 6.438 0.97528C6.44569 2.14671 6.41237 3.32071 6.45082 4.48958C6.48158 5.48159 5.82794 5.96605 4.99998 5.94811C3.76447 5.91991 2.52639 5.94042 1.24986 5.94042C1.24986 6.04551 1.24986 6.13779 1.24986 6.23007C1.24986 8.18332 1.24986 10.1366 1.24986 12.0872C1.24986 12.1616 1.25498 12.2334 1.24986 12.3077C1.23191 12.523 1.0653 12.6845 0.870486 12.6794C0.680801 12.6742 0.532129 12.5256 0.514186 12.3154C0.509059 12.2513 0.509059 12.1847 0.509059 12.1206C0.509059 10.1519 0.516749 8.18332 0.503933 6.21213C0.501369 5.65589 0.685928 5.21244 1.08068 4.82281C2.42385 3.49758 3.75678 2.15953 5.08714 0.821481C5.4255 0.48056 5.75616 0.142203 6.23294 -0.00390625C10.5624 -0.00390625 14.8918 -0.00390625 19.2213 -0.00390625V-0.00134294ZM1.85993 5.17655C1.91632 5.17911 1.97271 5.18424 2.02654 5.18424C3.05956 5.18424 4.09001 5.18424 5.12302 5.18424C5.54084 5.18424 5.69721 5.02532 5.69721 4.61262C5.69721 3.58986 5.69721 2.56453 5.69721 1.54177C5.69721 1.47256 5.69208 1.40335 5.68952 1.34952C4.41299 2.62605 3.14158 3.89746 1.85993 5.17911V5.17655Z" fill="white"/>
<path d="M16.237 24.2663C16.1293 24.0637 16.0422 23.8997 15.9499 23.7254C15.6141 23.8279 15.286 23.9202 14.9656 24.0253C14.6965 24.1125 14.4658 24.0586 14.2786 23.8536C14.089 23.6459 14.0736 23.4101 14.1812 23.1512C14.4734 22.4566 14.7528 21.7542 15.0528 21.0621C15.1373 20.8647 15.1092 20.7648 14.9066 20.7007C14.3581 20.5264 14.0684 20.1547 14.0326 19.5728C14.0249 19.437 13.9326 19.278 13.8275 19.1832C13.4225 18.809 13.2789 18.3834 13.443 17.8426C13.4866 17.699 13.4558 17.5017 13.3892 17.3607C13.1585 16.8788 13.1995 16.4456 13.5173 16.0124C13.6096 15.8893 13.6634 15.6997 13.6532 15.5459C13.6147 14.9819 13.8147 14.5718 14.3145 14.2924C14.4196 14.2334 14.5119 14.0925 14.5452 13.9745C14.6939 13.4311 15.022 13.1107 15.5834 13.0107C15.7269 12.9851 15.8884 12.8826 15.9756 12.7672C16.3113 12.3186 16.7369 12.17 17.2828 12.2674C17.4187 12.293 17.5981 12.2648 17.7109 12.1905C18.1903 11.8829 18.6516 11.8803 19.1233 12.1956C19.2053 12.252 19.3079 12.2776 19.4335 12.334V11.9982C19.4335 9.62204 19.4335 7.24585 19.4335 4.87222C19.4335 4.80813 19.4309 4.74149 19.4335 4.67741C19.4463 4.43902 19.5949 4.26984 19.7975 4.26215C20.0051 4.2519 20.1691 4.4262 20.1871 4.67741C20.1922 4.74918 20.1871 4.82351 20.1871 4.89785C20.1871 7.2561 20.1871 9.61691 20.1845 11.9752C20.1845 12.17 20.2076 12.2981 20.4178 12.3853C20.5716 12.4494 20.7126 12.5929 20.8151 12.7339C20.9407 12.9056 21.0842 13.003 21.2893 13.0338C21.8097 13.1158 22.1172 13.4234 22.2685 13.9284C22.3146 14.0822 22.4402 14.2411 22.5761 14.3308C23.0272 14.6231 23.2092 15.0178 23.181 15.5484C23.1733 15.7073 23.2297 15.9022 23.322 16.0329C23.6245 16.461 23.6783 16.8967 23.4322 17.3581C23.3374 17.5376 23.322 17.699 23.3861 17.8913C23.5476 18.3911 23.4066 18.809 23.0247 19.1678C22.9119 19.2729 22.8145 19.4447 22.8017 19.5959C22.753 20.1291 22.4864 20.511 21.9788 20.6956C21.7755 20.769 21.7157 20.9066 21.7994 21.1082C22.0711 21.767 22.3428 22.4284 22.6197 23.0871C22.735 23.3614 22.7658 23.6229 22.553 23.8612C22.3326 24.1073 22.066 24.1099 21.7712 24.0099C21.4815 23.91 21.1842 23.8279 20.8792 23.7356C20.7177 24.0407 20.5588 24.3303 20.405 24.6251C20.2665 24.8891 20.0589 25.0096 19.7564 25.0096C13.807 25.007 7.8601 25.0096 1.91065 25.007C1.15447 25.007 0.559781 24.4406 0.521331 23.6895C0.505951 23.3896 0.513641 23.0871 0.513641 22.7872C0.513641 19.9471 0.513641 17.1069 0.513641 14.2693C0.513641 14.1796 0.513641 14.0899 0.521331 14.0002C0.541838 13.79 0.66744 13.6772 0.872505 13.6695C1.0827 13.6618 1.20574 13.7849 1.24931 13.9822C1.26726 14.0591 1.257 14.1437 1.257 14.2258C1.257 17.3171 1.257 20.4085 1.257 23.4998C1.257 24.0202 1.51333 24.2765 2.03881 24.2765C6.70917 24.2765 11.3795 24.2765 16.0524 24.2765C16.1012 24.2765 16.1499 24.2765 16.2473 24.2765L16.237 24.2663ZM20.4075 20.9929C20.6767 21.0467 20.8561 20.8929 20.9791 20.6084C21.1099 20.3008 21.3534 20.0983 21.6738 20.0035C21.9276 19.9291 22.0506 19.7651 22.0532 19.5036C22.0557 19.1473 22.2044 18.8577 22.4787 18.6372C22.694 18.4655 22.7376 18.2707 22.6479 18.0143C22.5402 17.7016 22.553 17.3838 22.7248 17.0967C22.8786 16.8429 22.858 16.6353 22.6658 16.4123C22.4351 16.1457 22.3531 15.8253 22.4172 15.4792C22.4607 15.2459 22.3838 15.0793 22.1813 14.9717C21.8378 14.7871 21.62 14.5103 21.5405 14.1283C21.4918 13.9028 21.3585 13.7849 21.1227 13.7541C20.7484 13.708 20.4485 13.5337 20.2435 13.2056C20.1204 13.0082 19.941 12.9415 19.718 12.9979C19.3386 13.0928 18.9951 13.0312 18.6798 12.8031C18.5107 12.6801 18.3338 12.6647 18.1621 12.7903C17.8314 13.0312 17.4751 13.0979 17.0778 12.9954C16.8804 12.9441 16.7061 13.0056 16.5933 13.1876C16.3806 13.5285 16.0678 13.7131 15.6756 13.7592C15.4603 13.7849 15.3296 13.9028 15.2886 14.1053C15.204 14.5077 14.9835 14.7948 14.6221 14.9845C14.435 15.0819 14.3581 15.2511 14.3991 15.4561C14.476 15.8355 14.376 16.1636 14.13 16.4533C13.9659 16.6455 13.9505 16.8403 14.0787 17.0556C14.253 17.3504 14.3017 17.6683 14.1864 17.9938C14.0864 18.2681 14.1325 18.4732 14.3684 18.6577C14.6375 18.8705 14.7759 19.1627 14.7785 19.5062C14.7785 19.7753 14.9066 19.9266 15.1553 20.0035C15.4936 20.1086 15.7372 20.3264 15.8705 20.652C15.9756 20.9057 16.1499 21.016 16.4216 20.9929C16.7753 20.9647 17.0778 21.0877 17.3213 21.3441C17.5033 21.5338 17.6955 21.5696 17.9339 21.4517C18.2518 21.2954 18.5824 21.2954 18.8977 21.4517C19.1515 21.5773 19.3412 21.5209 19.5283 21.3287C19.7539 21.098 20.0333 20.9775 20.4126 20.9929H20.4075ZM19.0643 22.2694C19.3207 22.8846 19.5642 23.4742 19.8154 24.0766C19.8462 24.0432 19.8538 24.0381 19.859 24.033C19.9769 23.8125 20.0948 23.5895 20.2153 23.3691C20.4203 22.9923 20.6741 22.8872 21.0842 23.0102C21.3354 23.0846 21.5866 23.164 21.8763 23.2537C21.6302 22.6616 21.3995 22.1131 21.197 21.6235C20.892 21.6645 20.6382 21.6901 20.387 21.7311C20.2794 21.7491 20.1461 21.767 20.0769 21.8388C19.8 22.1131 19.4873 22.2874 19.0643 22.272V22.2694ZM16.9957 24.1022C17.2572 23.4665 17.5007 22.8769 17.7545 22.2694C17.352 22.2797 17.0445 22.1336 16.7804 21.8644C16.7087 21.7901 16.5856 21.7491 16.4805 21.7311C16.2062 21.685 15.9294 21.6594 15.6218 21.6235C15.4142 22.1259 15.1912 22.6693 14.9502 23.2537C15.2476 23.1615 15.486 23.0846 15.7243 23.0128C16.1499 22.8846 16.3985 22.9872 16.6113 23.3742C16.7343 23.5998 16.8548 23.8279 16.9983 24.0996L16.9957 24.1022ZM18.4107 22.636C18.18 23.1922 17.9647 23.7126 17.7391 24.256H19.0797C18.8593 23.7203 18.644 23.1999 18.4107 22.636Z" fill="white"/>
<path d="M10.3067 8.63757C8.54062 8.63757 6.77706 8.63757 5.01093 8.63757C4.94685 8.63757 4.88021 8.63757 4.81612 8.63757C4.55979 8.62475 4.38805 8.47608 4.38292 8.26332C4.3778 8.05313 4.5521 7.89677 4.80587 7.88395C4.86995 7.88139 4.9366 7.88395 5.00068 7.88395C8.56369 7.88395 12.1267 7.88395 15.6871 7.88395C15.7922 7.88395 15.8999 7.88395 16.0024 7.90702C16.1844 7.94547 16.31 8.07876 16.2767 8.25307C16.2511 8.38123 16.1383 8.51196 16.0306 8.59912C15.9614 8.65295 15.8281 8.64013 15.7256 8.64013C13.921 8.64013 12.1139 8.64013 10.3093 8.64013L10.3067 8.63757Z" fill="white"/>
<path d="M10.3596 10.4468C12.1745 10.4468 13.9867 10.4468 15.8015 10.4494C15.9118 10.4494 16.0604 10.4545 16.1194 10.5186C16.2066 10.6134 16.2886 10.78 16.2629 10.8928C16.2373 11.0031 16.0809 11.0876 15.9707 11.1722C15.94 11.1953 15.8759 11.1774 15.8272 11.1774C12.1668 11.1774 8.50636 11.1774 4.84851 11.1774C4.6742 11.1774 4.50502 11.1569 4.44094 10.9825C4.40249 10.8749 4.39224 10.6903 4.45632 10.6262C4.55629 10.5263 4.72803 10.4519 4.87158 10.4494C6.70178 10.4391 8.53199 10.4417 10.3622 10.4417L10.3596 10.4468Z" fill="white"/>
<path d="M7.54472 12.9961C8.41368 12.9961 9.28521 12.9961 10.1542 12.9961C10.2439 12.9961 10.3336 12.9961 10.4208 13.0166C10.6104 13.0627 10.7181 13.1986 10.7104 13.3883C10.7053 13.5651 10.6002 13.6933 10.4182 13.7318C10.331 13.7497 10.2413 13.7523 10.1516 13.7523C8.42138 13.7523 6.68857 13.7523 4.95834 13.7523C4.94296 13.7523 4.92501 13.7523 4.90964 13.7523C4.57897 13.7497 4.38672 13.6087 4.38672 13.3729C4.38672 13.1345 4.57897 12.9961 4.9122 12.9961C5.78885 12.9961 6.66807 12.9961 7.54472 12.9961Z" fill="white"/>
<path d="M8.50278 21.6269C8.26952 21.5218 8.02344 21.4423 7.80556 21.309C7.41081 21.0706 7.23906 21.0578 6.84944 21.3167C6.31627 21.673 5.77541 21.6653 5.22943 21.3167C5.08588 21.2244 4.90901 21.1706 4.7424 21.127C4.51426 21.0681 4.3579 20.904 4.3861 20.7066C4.41429 20.4939 4.61423 20.3298 4.85006 20.3862C5.0987 20.4426 5.3499 20.5272 5.56778 20.6554C5.95484 20.8809 6.13428 20.8989 6.50596 20.6502C7.05194 20.2837 7.5928 20.2888 8.14391 20.6425C8.28233 20.7323 8.44638 20.7963 8.60787 20.8348C8.86164 20.8963 8.98468 21.0117 8.9693 21.2372C8.95392 21.4602 8.78987 21.5858 8.50021 21.6269H8.50278Z" fill="white"/>
<path d="M15.2656 17.1325C15.2708 15.392 16.678 14.0002 18.4262 14.0078C20.1769 14.013 21.5714 15.4279 21.5663 17.1838C21.5586 18.9012 20.118 20.3162 18.3877 20.3085C16.6626 20.2982 15.2631 18.8756 15.2682 17.1325H15.2656ZM18.4082 19.56C19.7284 19.56 20.8126 18.4834 20.8229 17.1607C20.8306 15.8483 19.7386 14.7486 18.4236 14.7461C17.0907 14.7435 15.9962 15.8304 15.9987 17.1582C15.9987 18.4757 17.0881 19.56 18.4082 19.5625V19.56Z" fill="white"/>
</g>
<defs>
<clipPath id="clip0_884_3364">
<rect width="23.0801" height="25" fill="white" transform="translate(0.5)"/>
</clipPath>
</defs>
</svg>
