<?xml version="1.0" standalone="no"?>
<!DOCTYPE svg PUBLIC "-//W3C//DTD SVG 20010904//EN"
 "http://www.w3.org/TR/2001/REC-SVG-20010904/DTD/svg10.dtd">
<svg version="1.0" xmlns="http://www.w3.org/2000/svg"
 width="120.000000pt" height="120.000000pt" viewBox="0 0 120.000000 120.000000"
 preserveAspectRatio="xMidYMid meet">
<metadata>
Created by potrace 1.14, written by Peter Selinger 2001-2017
</metadata>
<g transform="translate(0.000000,120.000000) scale(0.100000,-0.100000)"
fill="#000000" stroke="none">
<path d="M0 600 l0 -600 600 0 600 0 0 600 0 600 -600 0 -600 0 0 -600z m380
57 l0 -52 -82 7 c-46 3 -98 7 -115 7 -31 1 -33 3 -33 36 0 46 18 54 138 54
l92 1 0 -53z m390 -2 l0 -55 -187 2 -188 3 -3 53 -3 52 190 0 191 0 0 -55z
m221 45 c13 -7 19 -21 19 -44 l0 -33 -61 -7 c-34 -3 -86 -6 -115 -6 l-54 0 0
34 c0 64 3 66 102 66 49 0 98 -5 109 -10z m-617 -111 c5 -4 11 -30 14 -57 l4
-50 -48 9 c-131 24 -175 47 -187 97 l-5 23 106 -7 c59 -4 111 -10 116 -15z
m636 8 c0 -24 -32 -59 -68 -74 -19 -8 -66 -21 -104 -28 l-70 -13 7 52 c4 28 9
53 12 56 2 3 39 8 81 11 133 10 142 10 142 -4z m-245 -59 c-4 -29 -8 -54 -10
-56 -1 -1 -29 -7 -61 -12 -78 -13 -153 -13 -231 1 l-63 11 0 38 c0 21 -3 45
-6 54 -5 14 15 16 186 16 l192 0 -7 -52z"/>
</g>
</svg>
